<?xml version="1.0" encoding="UTF-8" standalone="no"?>
<svg width="200px" height="200px" viewBox="0 0 200 200" version="1.1" xmlns="http://www.w3.org/2000/svg" xmlns:xlink="http://www.w3.org/1999/xlink" xmlns:sketch="http://www.bohemiancoding.com/sketch/ns">
    <title>iTunes</title>
    <description>Created with Sketch (http://www.bohemiancoding.com/sketch)</description>
    <defs></defs>
    <g id="Page-1" stroke="none" stroke-width="1" fill="none" fill-rule="evenodd" sketch:type="MSPage">
        <path d="M99.999998,0 C44.771526,0 0,44.771526 0,100.000004 C0,155.228484 44.771526,200 99.999998,200 C155.228474,200 200,155.228484 200,100.000004 C200,44.771526 155.228474,0 99.999998,0 L99.999998,0 L99.999998,0 Z M149.249998,48.875004 C149.167358,61.549002 148.959118,86.553404 148.75,104.375006 L148.374998,136.750006 L147,139.125008 C144.00045,144.525808 137.34286,149.536608 131.25,150.875006 C127.547014,151.689006 120.065084,151.149408 116.875,149.87501 C112.1057,147.968208 107.724878,143.491408 106.375,139.125008 C106.00776,137.937406 105.864264,135.726006 105.999998,133.500008 C106.30496,128.498406 107.89468,125.325608 112,121.250006 C118.412334,114.883606 124.393692,113.381804 136.75,115.125004 L138.75,115.375006 L138.75,90.000004 L138.75,64.750004 L136.999998,64.750004 C134.95874,64.752044 118.578532,67.124004 107.999998,69.000002 C100.980616,70.244402 89.925478,72.662402 81.374998,74.750006 L76.999998,75.750004 L76.625002,107.375006 C76.27168,141.905808 75.824052,152.465008 74.625,155.125008 C73.589264,157.421806 67.901528,163.077004 65,164.625 C63.695908,165.320202 61.3743,166.214616 59.874998,166.625014 C56.633964,167.513814 49.953106,167.611616 46.625,166.750002 C39.082038,164.78281 33.913816,158.731602 33.250002,151.250008 C32.983202,148.243206 33.029998,147.649808 34.375,144.625008 C37.357372,137.917008 44.34464,132.142406 51.124998,130.750008 C54.018838,130.155208 61.929878,130.383006 65.125,131.125004 L66.375,131.500008 L66.375,87.625004 C66.375,57.226202 66.514162,43.339602 66.875002,42.250002 C67.440556,40.543202 66.69832,40.902002 78.749998,37.250002 C89.91858,33.865202 102.222165,30.2392578 112.625,28.375002 C120.283613,27.0025286 134.863296,26.0824 142.5,26.000002 L149.5,25.875 L149.249998,48.875004 Z" id="iTunes" fill="#444444" sketch:type="MSShapeGroup"></path>
    </g>
</svg>