<?xml version="1.0" encoding="UTF-8" standalone="no"?>
<svg width="200px" height="200px" viewBox="0 0 200 200" version="1.1" xmlns="http://www.w3.org/2000/svg" xmlns:xlink="http://www.w3.org/1999/xlink" xmlns:sketch="http://www.bohemiancoding.com/sketch/ns">
    <title>RSS</title>
    <description>Created with Sketch (http://www.bohemiancoding.com/sketch)</description>
    <defs></defs>
    <g id="Page-1" stroke="none" stroke-width="1" fill="none" fill-rule="evenodd" sketch:type="MSPage">
        <path d="M100,0 C44.771524,3.03201907e-14 0,44.771524 0,100 C0,155.228476 44.771524,200 100,200 C155.228476,200 200,155.228476 200,100 C200,44.771524 155.228476,-3.41060513e-14 100,0 Z M67.6531271,132.304378 C70.6082161,135.255399 72.4056694,139.259678 72.4165138,143.718064 C72.4056694,148.168318 70.6082161,152.172597 67.6639714,155.112773 L67.6531271,155.118195 C64.7034602,158.054305 60.6747791,159.849046 56.1947014,159.849046 C51.7200459,159.849046 47.7008537,158.048883 44.7525423,155.112773 C41.8110087,152.173952 40,148.17374 40,143.718064 C40,139.259678 41.8110087,135.24591 44.7525423,132.300311 L44.7525423,132.304378 C47.7022092,129.365557 51.7214015,127.55726 56.1947014,127.55726 C60.6747791,127.55726 64.6993935,129.369624 67.6531271,132.304378 Z M67.6531271,132.300311 L67.6531271,132.304378 L67.6585492,132.304378 L67.6531271,132.300311 Z M44.7525423,155.118195 C44.7525423,155.118195 44.7525423,155.118195 44.7525423,155.112773 L44.7471201,155.112773 L44.7525423,155.118195 Z M40.0135555,79.4855784 L40.0135555,102.780614 C55.2214198,102.790103 69.6051125,108.763989 80.3694989,119.544636 C91.1311742,130.291394 97.0806631,144.696768 97.1050629,159.95749 L97.1131962,159.95749 L97.1131962,159.999512 L120.504488,159.999512 C120.485511,137.809245 111.465711,117.709228 96.8827535,103.115434 C82.2970845,88.5243505 62.2051899,79.4991339 40.0135555,79.4855784 Z M40.0555774,62.9029686 C93.5271714,62.9416349 136.994841,106.477281 137.030841,159.999512 L160,159.999512 C159.984,126.919781 146.538769,96.9493582 124.809601,75.2055351 C103.073766,53.4683787 73.1233263,40.0151548 40.0555774,40.0004883 L40.0555774,62.9029686 Z" id="RSS" fill="#444444" sketch:type="MSShapeGroup"></path>
    </g>
</svg>